<svg width="20" height="20" viewBox="0 0 20 20" fill="none" xmlns="http://www.w3.org/2000/svg">
<path d="M4.99999 18.3333H1.66666V15H4.99999V18.3333ZM11.6667 18.3333H8.33332V15H11.6667V18.3333ZM18.3333 18.3333H15V15H18.3333V18.3333ZM8.33332 15H4.99999V11.6666H8.33332V15ZM15 15H11.6667V11.6666H15V15ZM4.99999 11.6666H1.66666V8.33329H4.99999V11.6666ZM11.6667 11.6666H8.33332V8.33329H11.6667V11.6666ZM18.3333 11.6666H15V8.33329H18.3333V11.6666ZM8.33332 8.33329H4.99999V4.99996H8.33332V8.33329ZM15 8.33329H11.6667V4.99996H15V8.33329ZM4.99999 4.99996H1.66666V1.66663H4.99999V4.99996ZM11.6667 4.99996H8.33332V1.66663H11.6667V4.99996ZM18.3333 4.99996H15V1.66663H18.3333V4.99996Z" fill="currentColor"/>
</svg>
