<svg width="18" height="18" viewBox="0 0 18 18" fill="none" xmlns="http://www.w3.org/2000/svg">
<path d="M3.99999 17.3333H0.666656V14H3.99999V17.3333ZM10.6667 17.3333H7.33332V14H10.6667V17.3333ZM17.3333 17.3333H14V14H17.3333V17.3333ZM7.33332 14H3.99999V10.6667H7.33332V14ZM14 14H10.6667V10.6667H14V14ZM3.99999 10.6667H0.666656V7.33334H3.99999V10.6667ZM10.6667 10.6667H7.33332V7.33334H10.6667V10.6667ZM17.3333 10.6667H14V7.33334H17.3333V10.6667ZM7.33332 7.33334H3.99999V4.00001H7.33332V7.33334ZM14 7.33334H10.6667V4.00001H14V7.33334ZM3.99999 4.00001H0.666656V0.666672H3.99999V4.00001ZM10.6667 4.00001H7.33332V0.666672H10.6667V4.00001ZM17.3333 4.00001H14V0.666672H17.3333V4.00001Z" fill="white"/>
</svg>
